<mxfile host="Electron" agent="Mozilla/5.0 (Windows NT 10.0; Win64; x64) AppleWebKit/537.36 (KHTML, like Gecko) draw.io/28.2.5 Chrome/138.0.7204.251 Electron/37.6.1 Safari/537.36" version="28.2.5">
  <diagram name="PÃ¡gina-1" id="A80b1A78pgPWUXEbwkEl">
    <mxGraphModel dx="1175" dy="688" grid="0" gridSize="10" guides="1" tooltips="1" connect="1" arrows="1" fold="1" page="1" pageScale="1" pageWidth="827" pageHeight="1169" math="0" shadow="0">
      <root>
        <mxCell id="0" />
        <mxCell id="1" parent="0" />
        <mxCell id="WrzgNDz1bKLambjdCucl-1" value="" style="group" parent="1" vertex="1" connectable="0">
          <mxGeometry x="9" y="42" width="796" height="668" as="geometry" />
        </mxCell>
        <mxCell id="PD5IiSRvw4eK9SDHgZ8Y-4" value="&lt;h3&gt;&lt;b&gt;&lt;font style=&quot;font-size: 14px;&quot; face=&quot;Verdana&quot;&gt;AWS&lt;br&gt;Load Balancer Infrastructure&lt;/font&gt;&lt;/b&gt;&lt;/h3&gt;" style="text;html=1;align=center;verticalAlign=middle;whiteSpace=wrap;rounded=0;container=0;" parent="WrzgNDz1bKLambjdCucl-1" vertex="1">
          <mxGeometry x="273" width="291" height="32" as="geometry" />
        </mxCell>
        <mxCell id="6_CV-VD-19mCUged8Sou-3" value="" style="rounded=1;arcSize=0;fillColor=none;gradientColor=none;strokeWidth=1;container=0;strokeColor=#0800FF;" parent="WrzgNDz1bKLambjdCucl-1" vertex="1">
          <mxGeometry x="75.28" y="55" width="720.72" height="562" as="geometry" />
        </mxCell>
        <mxCell id="TseGNdZm3ASx_0Q_E8ii-17" value="Target Group" style="outlineConnect=0;gradientColor=none;html=1;whiteSpace=wrap;fontSize=12;fontStyle=0;strokeColor=#879196;fillColor=none;verticalAlign=top;align=center;fontColor=#879196;dashed=1;spacingTop=3;container=0;" parent="WrzgNDz1bKLambjdCucl-1" vertex="1">
          <mxGeometry x="417" y="102" width="297" height="466" as="geometry" />
        </mxCell>
        <mxCell id="TseGNdZm3ASx_0Q_E8ii-13" value="Security group for&lt;br&gt;Load Balancer" style="fillColor=none;strokeColor=#FFB366;verticalAlign=top;fontStyle=0;fontColor=#DD3522;whiteSpace=wrap;html=1;container=0;" parent="WrzgNDz1bKLambjdCucl-1" vertex="1">
          <mxGeometry x="235" y="252" width="93" height="156" as="geometry" />
        </mxCell>
        <mxCell id="g5_aFfmOjSk22XSk76C8-32" style="edgeStyle=orthogonalEdgeStyle;rounded=0;orthogonalLoop=1;jettySize=auto;html=1;" parent="WrzgNDz1bKLambjdCucl-1" source="2XTZozhmLt2jDI83T8NR-40" target="g5_aFfmOjSk22XSk76C8-26" edge="1">
          <mxGeometry relative="1" as="geometry" />
        </mxCell>
        <mxCell id="2XTZozhmLt2jDI83T8NR-43" value="" style="sketch=0;pointerEvents=1;shadow=0;dashed=0;html=1;strokeColor=#006EAF;labelPosition=center;verticalLabelPosition=bottom;verticalAlign=top;align=center;fillColor=#1ba1e2;shape=mxgraph.mscae.intune.user_group;fontFamily=Helvetica;fontSize=12;fontStyle=0;fontColor=#ffffff;container=0;" parent="WrzgNDz1bKLambjdCucl-1" vertex="1">
          <mxGeometry x="5" y="220.68" width="50" height="37" as="geometry" />
        </mxCell>
        <mxCell id="2XTZozhmLt2jDI83T8NR-13" value="VPC" style="points=[[0,0],[0.25,0],[0.5,0],[0.75,0],[1,0],[1,0.25],[1,0.5],[1,0.75],[1,1],[0.75,1],[0.5,1],[0.25,1],[0,1],[0,0.75],[0,0.5],[0,0.25]];outlineConnect=0;gradientColor=none;html=1;whiteSpace=wrap;fontSize=12;fontStyle=0;container=0;pointerEvents=0;collapsible=0;recursiveResize=0;shape=mxgraph.aws4.group;grIcon=mxgraph.aws4.group_vpc2;strokeColor=#8C4FFF;fillColor=none;verticalAlign=top;align=left;spacingLeft=30;fontColor=#AAB7B8;dashed=0;" parent="WrzgNDz1bKLambjdCucl-1" vertex="1">
          <mxGeometry x="120" y="79" width="645" height="513" as="geometry" />
        </mxCell>
        <mxCell id="2XTZozhmLt2jDI83T8NR-34" value="Internet&lt;br&gt;Gateway" style="text;html=1;align=center;verticalAlign=middle;whiteSpace=wrap;rounded=0;labelBackgroundColor=default;container=0;" parent="WrzgNDz1bKLambjdCucl-1" vertex="1">
          <mxGeometry x="88.47" y="354" width="60" height="30" as="geometry" />
        </mxCell>
        <mxCell id="2XTZozhmLt2jDI83T8NR-37" value="Availability zone A" style="sketch=0;outlineConnect=0;html=1;whiteSpace=wrap;fontSize=12;fontStyle=0;shape=mxgraph.aws4.group;grIcon=mxgraph.aws4.group_availability_zone;strokeColor=#d6b656;fillColor=#fff2cc;verticalAlign=top;align=left;spacingLeft=30;dashed=1;pointerEvents=1;fontFamily=Helvetica;container=0;" parent="WrzgNDz1bKLambjdCucl-1" vertex="1">
          <mxGeometry x="463" y="133" width="206" height="190" as="geometry" />
        </mxCell>
        <mxCell id="2XTZozhmLt2jDI83T8NR-18" value="Public Subnet 1 (us-east-1a)" style="sketch=0;outlineConnect=0;html=1;whiteSpace=wrap;fontSize=12;fontStyle=0;shape=mxgraph.aws4.group;grIcon=mxgraph.aws4.group_subnet;strokeColor=#6c8ebf;fillColor=#dae8fc;verticalAlign=top;align=left;spacingLeft=30;dashed=0;container=0;" parent="WrzgNDz1bKLambjdCucl-1" vertex="1">
          <mxGeometry x="473" y="169" width="186" height="142" as="geometry" />
        </mxCell>
        <mxCell id="2XTZozhmLt2jDI83T8NR-45" value="EC2" style="points=[[0,0],[0.25,0],[0.5,0],[0.75,0],[1,0],[1,0.25],[1,0.5],[1,0.75],[1,1],[0.75,1],[0.5,1],[0.25,1],[0,1],[0,0.75],[0,0.5],[0,0.25]];outlineConnect=0;gradientColor=none;html=1;whiteSpace=wrap;fontSize=12;fontStyle=0;container=0;pointerEvents=0;collapsible=0;recursiveResize=0;shape=mxgraph.aws4.group;grIcon=mxgraph.aws4.group_ec2_instance_contents;strokeColor=#D86613;fillColor=none;verticalAlign=top;align=left;spacingLeft=30;fontColor=#D86613;dashed=0;shadow=0;fillStyle=solid;fontFamily=Helvetica;labelBorderColor=none;labelBackgroundColor=none;resizable=1;textDirection=ltr;" parent="WrzgNDz1bKLambjdCucl-1" vertex="1">
          <mxGeometry x="533.01" y="220" width="80" height="60" as="geometry" />
        </mxCell>
        <mxCell id="g5_aFfmOjSk22XSk76C8-24" style="edgeStyle=orthogonalEdgeStyle;rounded=0;orthogonalLoop=1;jettySize=auto;html=1;exitX=1;exitY=0.5;exitDx=0;exitDy=0;exitPerimeter=0;entryX=0;entryY=0.5;entryDx=0;entryDy=0;entryPerimeter=0;" parent="WrzgNDz1bKLambjdCucl-1" source="g5_aFfmOjSk22XSk76C8-13" edge="1">
          <mxGeometry relative="1" as="geometry">
            <mxPoint x="164" y="329.5" as="targetPoint" />
          </mxGeometry>
        </mxCell>
        <mxCell id="g5_aFfmOjSk22XSk76C8-30" style="edgeStyle=orthogonalEdgeStyle;rounded=0;orthogonalLoop=1;jettySize=auto;html=1;" parent="WrzgNDz1bKLambjdCucl-1" source="g5_aFfmOjSk22XSk76C8-26" target="g5_aFfmOjSk22XSk76C8-13" edge="1">
          <mxGeometry relative="1" as="geometry" />
        </mxCell>
        <mxCell id="g5_aFfmOjSk22XSk76C8-26" value="" style="sketch=0;outlineConnect=0;fontColor=#3333FF;gradientColor=none;strokeColor=#3399FF;fillColor=#ffffff;dashed=0;verticalLabelPosition=bottom;verticalAlign=top;align=center;html=1;fontSize=12;fontStyle=0;aspect=fixed;shape=mxgraph.aws4.resourceIcon;resIcon=mxgraph.aws4.internet;labelBackgroundColor=none;container=0;" parent="WrzgNDz1bKLambjdCucl-1" vertex="1">
          <mxGeometry y="299.91" width="60" height="60" as="geometry" />
        </mxCell>
        <mxCell id="g5_aFfmOjSk22XSk76C8-27" value="Internet" style="text;html=1;align=center;verticalAlign=middle;whiteSpace=wrap;rounded=0;labelBackgroundColor=default;container=0;" parent="WrzgNDz1bKLambjdCucl-1" vertex="1">
          <mxGeometry y="349" width="60" height="30" as="geometry" />
        </mxCell>
        <mxCell id="2XTZozhmLt2jDI83T8NR-40" value="Users" style="text;html=1;align=center;verticalAlign=middle;whiteSpace=wrap;rounded=0;fontFamily=Helvetica;fontSize=12;fontStyle=0;fillColor=default;labelBackgroundColor=default;container=0;" parent="WrzgNDz1bKLambjdCucl-1" vertex="1">
          <mxGeometry x="5" y="257.68" width="50" height="20" as="geometry" />
        </mxCell>
        <mxCell id="g5_aFfmOjSk22XSk76C8-13" value="" style="outlineConnect=0;dashed=0;verticalLabelPosition=bottom;verticalAlign=top;align=center;html=1;shape=mxgraph.aws3.internet_gateway;fillColor=#F58536;gradientColor=none;container=0;" parent="WrzgNDz1bKLambjdCucl-1" vertex="1">
          <mxGeometry x="96.46000000000001" y="305.82" width="48.54" height="48.18" as="geometry" />
        </mxCell>
        <mxCell id="2XTZozhmLt2jDI83T8NR-32" value="Router&lt;br&gt;Table" style="text;html=1;align=center;verticalAlign=middle;whiteSpace=wrap;rounded=0;labelBackgroundColor=default;container=0;" parent="WrzgNDz1bKLambjdCucl-1" vertex="1">
          <mxGeometry x="163" y="362.38" width="60" height="25.23" as="geometry" />
        </mxCell>
        <mxCell id="g5_aFfmOjSk22XSk76C8-38" value="" style="sketch=0;outlineConnect=0;fontColor=#232F3E;gradientColor=none;fillColor=#CC6600;strokeColor=none;dashed=0;verticalLabelPosition=bottom;verticalAlign=top;align=center;html=1;fontSize=12;fontStyle=0;aspect=fixed;pointerEvents=1;shape=mxgraph.aws4.cloud_wan_transit_gateway_route_table_attachment;container=0;" parent="WrzgNDz1bKLambjdCucl-1" vertex="1">
          <mxGeometry x="164" y="299.5" width="61" height="61" as="geometry" />
        </mxCell>
        <mxCell id="mhVzPHPiYotLxkn4lfT4-1" value="Security group for EC2" style="fillColor=none;strokeColor=#FFB366;verticalAlign=top;fontStyle=0;fontColor=#DD3522;whiteSpace=wrap;html=1;container=0;" parent="WrzgNDz1bKLambjdCucl-1" vertex="1">
          <mxGeometry x="508" y="194" width="128" height="106" as="geometry" />
        </mxCell>
        <mxCell id="mhVzPHPiYotLxkn4lfT4-113" value="" style="group;fillColor=default;container=0;" parent="WrzgNDz1bKLambjdCucl-1" vertex="1" connectable="0">
          <mxGeometry x="687" y="229.90999999999997" width="101" height="200" as="geometry" />
        </mxCell>
        <mxCell id="TseGNdZm3ASx_0Q_E8ii-1" value="Availability zone B" style="sketch=0;outlineConnect=0;html=1;whiteSpace=wrap;fontSize=12;fontStyle=0;shape=mxgraph.aws4.group;grIcon=mxgraph.aws4.group_availability_zone;strokeColor=#d6b656;fillColor=#fff2cc;verticalAlign=top;align=left;spacingLeft=30;dashed=1;pointerEvents=1;fontFamily=Helvetica;container=0;" parent="WrzgNDz1bKLambjdCucl-1" vertex="1">
          <mxGeometry x="463" y="350" width="206" height="190" as="geometry" />
        </mxCell>
        <mxCell id="TseGNdZm3ASx_0Q_E8ii-2" value="Public Subnet 2 (us-east-1b)" style="sketch=0;outlineConnect=0;html=1;whiteSpace=wrap;fontSize=12;fontStyle=0;shape=mxgraph.aws4.group;grIcon=mxgraph.aws4.group_subnet;strokeColor=#6c8ebf;fillColor=#dae8fc;verticalAlign=top;align=left;spacingLeft=30;dashed=0;container=0;" parent="WrzgNDz1bKLambjdCucl-1" vertex="1">
          <mxGeometry x="473" y="386" width="186" height="142" as="geometry" />
        </mxCell>
        <mxCell id="TseGNdZm3ASx_0Q_E8ii-3" value="EC2" style="points=[[0,0],[0.25,0],[0.5,0],[0.75,0],[1,0],[1,0.25],[1,0.5],[1,0.75],[1,1],[0.75,1],[0.5,1],[0.25,1],[0,1],[0,0.75],[0,0.5],[0,0.25]];outlineConnect=0;gradientColor=none;html=1;whiteSpace=wrap;fontSize=12;fontStyle=0;container=0;pointerEvents=0;collapsible=0;recursiveResize=0;shape=mxgraph.aws4.group;grIcon=mxgraph.aws4.group_ec2_instance_contents;strokeColor=#D86613;fillColor=none;verticalAlign=top;align=left;spacingLeft=30;fontColor=#D86613;dashed=0;shadow=0;fillStyle=solid;fontFamily=Helvetica;labelBorderColor=none;labelBackgroundColor=none;resizable=1;textDirection=ltr;" parent="WrzgNDz1bKLambjdCucl-1" vertex="1">
          <mxGeometry x="538.01" y="437" width="80" height="60" as="geometry" />
        </mxCell>
        <mxCell id="TseGNdZm3ASx_0Q_E8ii-4" value="Security group for EC2" style="fillColor=none;strokeColor=#FFB366;verticalAlign=top;fontStyle=0;fontColor=#DD3522;whiteSpace=wrap;html=1;container=0;" parent="WrzgNDz1bKLambjdCucl-1" vertex="1">
          <mxGeometry x="515" y="411" width="124" height="106" as="geometry" />
        </mxCell>
        <mxCell id="TseGNdZm3ASx_0Q_E8ii-19" style="edgeStyle=orthogonalEdgeStyle;rounded=0;orthogonalLoop=1;jettySize=auto;html=1;" parent="WrzgNDz1bKLambjdCucl-1" source="TseGNdZm3ASx_0Q_E8ii-6" target="TseGNdZm3ASx_0Q_E8ii-18" edge="1">
          <mxGeometry relative="1" as="geometry" />
        </mxCell>
        <mxCell id="TseGNdZm3ASx_0Q_E8ii-6" value="" style="outlineConnect=0;dashed=0;verticalLabelPosition=bottom;verticalAlign=top;align=center;html=1;shape=mxgraph.aws3.classic_load_balancer;fillColor=#F58536;gradientColor=none;container=0;" parent="WrzgNDz1bKLambjdCucl-1" vertex="1">
          <mxGeometry x="255" y="305" width="52.5" height="51" as="geometry" />
        </mxCell>
        <mxCell id="TseGNdZm3ASx_0Q_E8ii-8" style="edgeStyle=orthogonalEdgeStyle;rounded=0;orthogonalLoop=1;jettySize=auto;html=1;entryX=0;entryY=0.5;entryDx=0;entryDy=0;entryPerimeter=0;" parent="WrzgNDz1bKLambjdCucl-1" source="g5_aFfmOjSk22XSk76C8-38" target="TseGNdZm3ASx_0Q_E8ii-6" edge="1">
          <mxGeometry relative="1" as="geometry" />
        </mxCell>
        <mxCell id="TseGNdZm3ASx_0Q_E8ii-11" value="Application Load Balancer" style="text;html=1;align=center;verticalAlign=middle;whiteSpace=wrap;rounded=0;labelBackgroundColor=default;container=0;" parent="WrzgNDz1bKLambjdCucl-1" vertex="1">
          <mxGeometry x="240" y="360.77" width="88" height="25.23" as="geometry" />
        </mxCell>
        <mxCell id="TseGNdZm3ASx_0Q_E8ii-22" style="edgeStyle=orthogonalEdgeStyle;rounded=0;orthogonalLoop=1;jettySize=auto;html=1;" parent="WrzgNDz1bKLambjdCucl-1" source="TseGNdZm3ASx_0Q_E8ii-18" target="2XTZozhmLt2jDI83T8NR-37" edge="1">
          <mxGeometry relative="1" as="geometry">
            <Array as="points">
              <mxPoint x="417" y="331" />
              <mxPoint x="417" y="228" />
            </Array>
          </mxGeometry>
        </mxCell>
        <mxCell id="TseGNdZm3ASx_0Q_E8ii-23" style="edgeStyle=orthogonalEdgeStyle;rounded=0;orthogonalLoop=1;jettySize=auto;html=1;" parent="WrzgNDz1bKLambjdCucl-1" source="TseGNdZm3ASx_0Q_E8ii-18" target="TseGNdZm3ASx_0Q_E8ii-1" edge="1">
          <mxGeometry relative="1" as="geometry">
            <Array as="points">
              <mxPoint x="417" y="331" />
              <mxPoint x="417" y="445" />
            </Array>
          </mxGeometry>
        </mxCell>
        <mxCell id="TseGNdZm3ASx_0Q_E8ii-18" value="" style="sketch=0;outlineConnect=0;fontColor=#232F3E;gradientColor=none;fillColor=#E7157B;strokeColor=none;dashed=0;verticalLabelPosition=bottom;verticalAlign=top;align=center;html=1;fontSize=12;fontStyle=0;aspect=fixed;pointerEvents=1;shape=mxgraph.aws4.rule_3;container=0;" parent="WrzgNDz1bKLambjdCucl-1" vertex="1">
          <mxGeometry x="345" y="306.09000000000003" width="56" height="48.82" as="geometry" />
        </mxCell>
        <mxCell id="TseGNdZm3ASx_0Q_E8ii-20" value="Rule&lt;br&gt;Listener" style="text;html=1;align=center;verticalAlign=middle;whiteSpace=wrap;rounded=0;labelBackgroundColor=default;container=0;" parent="WrzgNDz1bKLambjdCucl-1" vertex="1">
          <mxGeometry x="328" y="362.38" width="88" height="25.23" as="geometry" />
        </mxCell>
        <mxCell id="PD5IiSRvw4eK9SDHgZ8Y-1" value="" style="outlineConnect=0;dashed=0;verticalLabelPosition=bottom;verticalAlign=top;align=center;html=1;shape=mxgraph.aws3.cloud_2;fillColor=#F58534;gradientColor=none;container=0;" parent="WrzgNDz1bKLambjdCucl-1" vertex="1">
          <mxGeometry x="75.28" y="55" width="27.26" height="27" as="geometry" />
        </mxCell>
        <mxCell id="mhVzPHPiYotLxkn4lfT4-103" value="Inbound rules" style="shape=ext;margin=3;double=1;whiteSpace=wrap;html=1;align=center;rounded=0;shadow=1;strokeColor=#98bf21;verticalAlign=middle;fontFamily=Helvetica;fontSize=12;fontColor=default;fillColor=#A7C942;container=0;" parent="WrzgNDz1bKLambjdCucl-1" vertex="1">
          <mxGeometry x="687" y="229.90999999999997" width="101" height="40" as="geometry" />
        </mxCell>
        <mxCell id="mhVzPHPiYotLxkn4lfT4-104" value="NGINX" style="whiteSpace=wrap;html=1;align=center;rounded=0;shadow=1;strokeColor=#98bf21;verticalAlign=middle;fontFamily=Helvetica;fontSize=12;fontColor=default;fillColor=none;container=0;" parent="WrzgNDz1bKLambjdCucl-1" vertex="1">
          <mxGeometry x="687" y="269.90999999999997" width="50.5" height="40" as="geometry" />
        </mxCell>
        <mxCell id="mhVzPHPiYotLxkn4lfT4-105" value="TCP/80" style="whiteSpace=wrap;html=1;align=center;rounded=0;shadow=1;strokeColor=#98bf21;verticalAlign=middle;fontFamily=Helvetica;fontSize=12;fontColor=default;fillColor=none;container=0;" parent="WrzgNDz1bKLambjdCucl-1" vertex="1">
          <mxGeometry x="737.5" y="269.90999999999997" width="50.5" height="40" as="geometry" />
        </mxCell>
        <mxCell id="mhVzPHPiYotLxkn4lfT4-106" value="SSH" style="whiteSpace=wrap;html=1;align=center;rounded=0;shadow=1;strokeColor=#98bf21;verticalAlign=middle;fontFamily=Helvetica;fontSize=12;fontColor=default;fillColor=none;container=0;" parent="WrzgNDz1bKLambjdCucl-1" vertex="1">
          <mxGeometry x="687" y="309.90999999999997" width="50.5" height="40" as="geometry" />
        </mxCell>
        <mxCell id="mhVzPHPiYotLxkn4lfT4-107" value="TCP/22" style="whiteSpace=wrap;html=1;align=center;rounded=0;shadow=1;strokeColor=#98bf21;verticalAlign=middle;fontFamily=Helvetica;fontSize=12;fontColor=default;fillColor=none;container=0;" parent="WrzgNDz1bKLambjdCucl-1" vertex="1">
          <mxGeometry x="737.5" y="309.90999999999997" width="50.5" height="40" as="geometry" />
        </mxCell>
        <mxCell id="mhVzPHPiYotLxkn4lfT4-108" value="Outbound rules" style="shape=ext;margin=3;double=1;whiteSpace=wrap;html=1;align=center;rounded=0;shadow=1;strokeColor=#98bf21;verticalAlign=middle;fontFamily=Helvetica;fontSize=12;fontColor=default;fillColor=#A7C942;container=0;" parent="WrzgNDz1bKLambjdCucl-1" vertex="1">
          <mxGeometry x="687" y="349.90999999999997" width="101" height="40" as="geometry" />
        </mxCell>
        <mxCell id="mhVzPHPiYotLxkn4lfT4-109" value="0.0.0.0/0" style="whiteSpace=wrap;html=1;align=center;rounded=0;shadow=1;strokeColor=#98bf21;verticalAlign=middle;fontFamily=Helvetica;fontSize=12;fontColor=default;fillColor=none;container=0;" parent="WrzgNDz1bKLambjdCucl-1" vertex="1">
          <mxGeometry x="687" y="389.90999999999997" width="50.5" height="40" as="geometry" />
        </mxCell>
        <mxCell id="mhVzPHPiYotLxkn4lfT4-110" value="All" style="whiteSpace=wrap;html=1;align=center;rounded=0;shadow=1;strokeColor=#98bf21;verticalAlign=middle;fontFamily=Helvetica;fontSize=12;fontColor=default;fillColor=none;container=0;" parent="WrzgNDz1bKLambjdCucl-1" vertex="1">
          <mxGeometry x="737.5" y="389.90999999999997" width="50.5" height="40" as="geometry" />
        </mxCell>
        <mxCell id="rJfzT9C7lu9Ak937VT8X-1" value="" style="whiteSpace=wrap;html=1;aspect=fixed;container=0;" parent="WrzgNDz1bKLambjdCucl-1" vertex="1">
          <mxGeometry y="456" width="212" height="212" as="geometry" />
        </mxCell>
        <mxCell id="rJfzT9C7lu9Ak937VT8X-2" value="&lt;h1 style=&quot;margin-top: 0px;&quot;&gt;&lt;font style=&quot;font-size: 20px;&quot;&gt;Details:&lt;/font&gt;&lt;/h1&gt;&lt;p&gt;1 VPC&lt;br&gt;1 Internet Gateway&lt;br&gt;1 Router Table&lt;br&gt;1 Segurity Group for Load Balancer&lt;br&gt;1 Rule Listener&lt;br&gt;1 Target Group&lt;br&gt;&lt;span style=&quot;background-color: transparent; color: light-dark(rgb(0, 0, 0), rgb(255, 255, 255));&quot;&gt;2 Available Zone&lt;br&gt;&lt;/span&gt;&lt;span style=&quot;background-color: transparent; color: light-dark(rgb(0, 0, 0), rgb(255, 255, 255));&quot;&gt;2 Public Subnet&lt;br&gt;&lt;/span&gt;&lt;span style=&quot;background-color: transparent; color: light-dark(rgb(0, 0, 0), rgb(255, 255, 255));&quot;&gt;2 Security Group&lt;br&gt;&lt;/span&gt;&lt;span style=&quot;background-color: transparent; color: light-dark(rgb(0, 0, 0), rgb(255, 255, 255));&quot;&gt;2 EC2&lt;/span&gt;&lt;/p&gt;" style="text;html=1;whiteSpace=wrap;overflow=hidden;rounded=0;container=0;" parent="WrzgNDz1bKLambjdCucl-1" vertex="1">
          <mxGeometry x="4" y="464" width="197" height="199" as="geometry" />
        </mxCell>
      </root>
    </mxGraphModel>
  </diagram>
</mxfile>
